<svg width="16" height="16" viewBox="0 0 16 16" fill="none" xmlns="http://www.w3.org/2000/svg">
<path d="M7.33329 7.33331H8.66663V3.99998H7.33329V7.33331ZM7.99996 9.99998C8.18885 9.99998 8.34718 9.93609 8.47496 9.80831C8.60274 9.68053 8.66663 9.5222 8.66663 9.33331C8.66663 9.14442 8.60274 8.98609 8.47496 8.85831C8.34718 8.73053 8.18885 8.66665 7.99996 8.66665C7.81107 8.66665 7.65274 8.73053 7.52496 8.85831C7.39718 8.98609 7.33329 9.14442 7.33329 9.33331C7.33329 9.5222 7.39718 9.68053 7.52496 9.80831C7.65274 9.93609 7.81107 9.99998 7.99996 9.99998ZM7.99996 12.9C9.35552 11.6555 10.3611 10.525 11.0166 9.50831C11.6722 8.49165 12 7.58887 12 6.79998C12 5.58887 11.6138 4.5972 10.8416 3.82498C10.0694 3.05276 9.12218 2.66665 7.99996 2.66665C6.87774 2.66665 5.93052 3.05276 5.15829 3.82498C4.38607 4.5972 3.99996 5.58887 3.99996 6.79998C3.99996 7.58887 4.32774 8.49165 4.98329 9.50831C5.63885 10.525 6.6444 11.6555 7.99996 12.9ZM7.99996 14.6666C6.21107 13.1444 4.87496 11.7305 3.99163 10.425C3.10829 9.11942 2.66663 7.91109 2.66663 6.79998C2.66663 5.13331 3.20274 3.80554 4.27496 2.81665C5.34718 1.82776 6.58885 1.33331 7.99996 1.33331C9.41107 1.33331 10.6527 1.82776 11.725 2.81665C12.7972 3.80554 13.3333 5.13331 13.3333 6.79998C13.3333 7.91109 12.8916 9.11942 12.0083 10.425C11.125 11.7305 9.78885 13.1444 7.99996 14.6666Z" fill="#6B363B"/>
</svg>
