<svg width="15" height="14" viewBox="0 0 15 14" fill="none" xmlns="http://www.w3.org/2000/svg">
<path d="M7.37891 0.703125C7.96484 0.703125 8.25781 1.04167 8.25781 1.71875V1.93359C8.20573 2.51953 7.75 3.79557 6.89062 5.76172C6.04427 7.71484 5.46484 9.40104 5.15234 10.8203C4.76172 12.5781 3.88281 13.457 2.51562 13.457C1.26562 13.457 0.640625 12.806 0.640625 11.5039C0.640625 11.3607 0.647135 11.2174 0.660156 11.0742C0.72526 10.3451 0.861979 9.64193 1.07031 8.96484C1.95573 6.04818 3.19271 3.80208 4.78125 2.22656C5.78385 1.21094 6.64974 0.703125 7.37891 0.703125ZM13.9609 0.703125C14.5469 0.703125 14.8398 1.04167 14.8398 1.71875V1.93359C14.7878 2.51953 14.3385 3.79557 13.4922 5.76172C12.6458 7.71484 12.0599 9.40104 11.7344 10.8203C11.3438 12.5781 10.4648 13.457 9.09766 13.457C7.84766 13.457 7.22266 12.806 7.22266 11.5039C7.22266 11.3607 7.22917 11.2174 7.24219 11.0742C7.30729 10.3451 7.44401 9.64193 7.65234 8.96484C8.55078 6.04818 9.78776 3.80208 11.3633 2.22656C12.3659 1.21094 13.2318 0.703125 13.9609 0.703125Z" fill="#ADFCF9"/>
</svg>
