<svg width="132" height="9" viewBox="0 0 132 9" fill="none" xmlns="http://www.w3.org/2000/svg">
<g clip-path="url(#clip0_17_50)">
<path d="M131.889 7.96515C129.108 5.6891 123.533 0.156169 123.281 0.407666C122.104 1.57892 121.128 3.00347 120.02 4.25018C118.971 5.43222 117.844 6.5406 116.725 7.65258C115.407 6.52443 114.094 5.44838 112.911 4.15318C112.304 3.4885 111.735 2.78611 111.093 2.15737C110.671 1.74419 110.229 1.32922 109.747 0.989702C108.842 0.351977 108.368 1.08671 107.74 1.69749C106.851 2.56335 105.901 3.36096 105.005 4.21964C104.481 4.72264 103.847 5.08551 103.284 5.53821C102.768 5.95318 102.282 6.66815 101.724 7.11186C100.744 5.66755 99.6037 4.33102 98.3259 3.15258C97.6958 2.57054 97.0305 2.02803 96.3301 1.5394C95.9904 1.30228 95.619 1.10467 95.304 0.833414C95.0523 0.616049 94.7689 0.0627557 94.4187 0.00706704C93.8326 -0.0881425 93.1709 1.1424 92.7995 1.47653C92.1096 2.09988 91.4021 2.70168 90.7033 3.31425C90.3197 3.65198 86.5761 6.95737 86.8648 7.3382C85.8158 5.96934 84.6014 4.73162 83.2797 3.63581C82.5686 3.04659 81.8224 2.49868 81.0357 2.01725C80.7418 1.83761 80.3757 1.62383 80.073 1.40647C79.772 1.1891 79.4253 0.704073 79.0451 0.657366C78.5048 0.590899 77.931 1.47832 77.616 1.843C77.037 2.51485 76.5389 3.25856 75.8982 3.87294C75.2787 4.46755 74.6662 5.06934 74.1294 5.743C73.4589 6.58371 72.6035 7.23401 71.9154 8.07473C69.8896 5.97473 67.7142 4.02563 65.6005 2.01725C64.6413 1.10647 64.0094 -0.168981 63.2174 0.797486C61.9203 2.37832 60.6162 4.23222 59.7115 5.21306C58.8685 6.12563 57.0715 7.38132 57.0715 7.38132C57.0715 7.38132 51.5011 2.79329 49.9787 0.982516C49.8203 0.79569 49.544 0.79569 49.3803 0.977127C47.2806 3.30707 44.7022 4.98132 42.3562 7.00946C39.7989 4.843 37.3314 2.61904 35.0046 0.190301C34.8286 0.00706703 34.5435 0.00886345 34.371 0.19569C33.1778 1.4909 31.9598 2.75198 30.6909 3.96994C30.177 4.44958 29.6613 4.92383 29.1403 5.39449C28.7443 5.75198 28.387 6.15078 28.0386 6.55677C27.7288 6.91785 27.1286 7.34359 26.847 6.95737C26.1166 5.96395 24.5414 4.46755 23.936 3.95198C23.1035 3.24419 22.3133 2.4897 21.4984 1.76036C21.1904 1.48551 20.2752 0.148983 19.9302 0.558564C18.8602 1.82683 17.915 3.1921 16.8115 4.43521C15.6323 5.76276 14.3158 6.93401 13.0522 8.16994C12.0102 6.74719 10.8909 5.38192 9.69583 4.0903C8.83519 3.15976 7.59615 1.16395 6.30783 0.847786C5.18319 0.572935 3.87375 3.40767 3.20847 4.25018C2.22639 5.49509 1.11055 6.61066 0.087994 7.81785C-0.168966 8.12144 0.183034 8.6891 0.536794 8.41246C1.80575 7.42623 2.88991 6.21365 3.91951 4.97593C4.71327 4.02383 5.62143 2.98371 6.19343 1.84659C7.25295 2.91186 8.28783 3.9897 9.28047 5.12503C10.391 6.39329 11.4206 7.81785 12.6667 8.94779C13.193 9.42563 16.1568 6.43641 16.6038 6.00168C18.0224 4.62563 19.3142 3.09509 20.3632 1.40647C21.0443 2.50048 22.1443 3.37892 23.0842 4.20347C24.156 5.14479 25.6115 8.13222 27.1603 8.20228C28.1952 8.24898 29.5029 6.49928 30.1875 5.84898C31.1027 4.97952 31.9211 4.01306 32.8275 3.13461C33.1989 2.77533 34.4238 0.894492 35.1701 1.65258C35.9674 2.46276 36.7963 3.2406 37.627 4.01485C39.0368 5.33162 40.5398 6.98072 42.0552 8.16635C42.4054 8.4394 43.3523 7.56096 43.604 7.37593C44.2482 6.90347 44.6389 6.14539 45.2989 5.69449C46.6787 4.75138 48.6605 3.05557 49.537 2.26695C50.021 1.83222 53.1643 6.73102 56.679 8.57593C56.797 8.63701 56.9906 8.65497 57.0962 8.57593C58.8438 7.26994 60.537 5.84719 61.8288 4.04898C62.4272 3.21725 63.9338 2.00288 63.9338 2.00288C64.9651 2.89749 65.9982 3.7903 67.0313 4.68312C67.8656 5.40527 68.7016 6.12563 69.5376 6.84419C70.1342 7.35797 71.0266 8.36036 71.8062 8.58671C72.5226 8.79509 73.0523 7.96515 73.5786 7.51246C74.3477 6.84958 74.9566 6.01785 75.6448 5.27413C76.1957 4.67952 76.8381 4.21066 77.3238 3.55318C77.8694 2.81485 78.401 2.10886 79.0698 1.49449C81.8118 3.45797 84.1685 5.53821 86.4811 8.0424C86.8402 8.43042 87.8645 6.99509 88.1426 6.74C89.0384 5.92084 89.9149 5.08012 90.8001 4.25018C91.9741 3.15258 93.3733 2.16276 94.475 0.982516C94.5701 0.880121 97.8173 3.90527 98.1147 4.19629C98.9384 5.00288 99.711 5.85976 100.45 6.74898C100.707 7.05797 101.061 7.75856 101.415 7.94C101.651 8.06036 101.879 7.98671 102.047 7.80886C102.974 6.82084 103.736 5.99809 104.856 5.24898C105.616 4.7406 106.184 4.03102 106.85 3.41844C107.643 2.68731 108.502 2.07114 109.245 1.28072C109.34 1.18012 112.466 4.64 112.749 4.95078C113.386 5.64958 114.06 6.31246 114.763 6.943C115.148 7.2897 116.192 8.51306 116.723 8.49868C117.202 8.48611 117.932 7.55916 118.246 7.26096C120.18 5.41964 121.741 3.37174 123.434 1.3418C125.824 4.05078 128.447 6.5424 131.461 8.51844C131.791 8.73401 132.194 8.21485 131.884 7.95976L131.889 7.96515Z" fill="#89A894"/>
</g>
<defs>
<clipPath id="clip0_17_50">
<rect width="132" height="9" fill="white"/>
</clipPath>
</defs>
</svg>
